<?xml version="1.0" encoding="utf-8"?>
<!-- Generator: Adobe Illustrator 21.1.0, SVG Export Plug-In . SVG Version: 6.00 Build 0)  -->
<svg version="1.1" id="Layer_1" xmlns="http://www.w3.org/2000/svg" xmlns:xlink="http://www.w3.org/1999/xlink" x="0px" y="0px"
	 viewBox="0 0 1390.7 2899" style="enable-background:new 0 0 1390.7 2899;" xml:space="preserve">
<style type="text/css">
	.st0{fill:#FFFFFF;}
	.st1{fill:#FF7A4F;}
	.st2{fill:none;stroke:#FF7A4F;stroke-width:8;}
	.st3{fill:none;stroke:#FF7A4F;stroke-width:6;}
	.st4{display:none;}
	.st5{display:inline;}
	.st6{clip-path:url(#SVGID_2_);}
</style>
<path class="st0" d="M1193,4H196C94.4,4,12,86.4,12,188v2523c0,101.6,82.4,184,184,184h997c101.6,0,184-82.4,184-184V188
	C1377,86.4,1294.6,4,1193,4z M1307,2543H82V352h1225V2543z"/>
<path id="volume_down" class="st1" d="M9,826h3v196H9c-4.9,0.1-8.9-3.8-9-8.7c0-0.1,0-0.2,0-0.3V835c-0.1-4.9,3.8-8.9,8.7-9
	C8.8,826,8.9,826,9,826z"/>
<path id="volume_up" class="st1" d="M9,558h3v196H9c-4.9,0.1-8.9-3.8-9-8.7c0-0.1,0-0.2,0-0.3V567c-0.1-4.9,3.8-8.9,8.7-9
	C8.8,558,8.9,558,9,558z"/>
<path id="sound_toggle" class="st1" d="M9,351h3v138H9c-4.9,0.1-8.9-3.8-9-8.7c0-0.1,0-0.2,0-0.3V360c-0.1-4.9,3.8-8.9,8.7-9
	C8.8,351,8.9,351,9,351z"/>
<path id="power_btn" class="st1" d="M1374.7,555h7c4.9-0.1,8.9,3.8,9,8.7c0,0.1,0,0.2,0,0.3v183c0.1,4.9-3.8,8.9-8.7,9
	c-0.1,0-0.2,0-0.3,0h-7V555z"/>
<path id="case" class="st2" d="M196,4h997c101.6,0,184,82.4,184,184v2523c0,101.6-82.4,184-184,184H196c-101.6,0-184-82.4-184-184
	V188C12,86.4,94.4,4,196,4z"/>
<g id="screen_1080x1920_copy">
	<path d="M1307,352v2191H82V352H1307 M1308.1,342H80.9c-4.9,0-8.9,4-8.9,8.9v2193.3c0,4.9,4,8.9,8.9,8.9h1227.3c4.9,0,8.9-4,8.9-8.9
		V350.9C1317,346,1313,342,1308.1,342L1308.1,342z"/>
</g>
<path id="home_btn" class="st2" d="M696,2613.1c60.3,0,110,48.7,110,109s-49.7,109-110,109c-60.2,0-109-48.8-109-109
	S635.8,2613.1,696,2613.1z"/>
<path id="speaker_1_" class="st3" d="M581.2,159.4l226.8,1.9c6.4,0.1,11.5,3.9,11.5,8.7l0,0c0,4.7-5.3,8.5-11.6,8.4l-226.8-1.9
	c-6.4-0.1-11.5-3.9-11.5-8.7l0,0C569.7,163.1,574.9,159.3,581.2,159.4z"/>
<ellipse id="camera_1_" transform="matrix(9.950799e-03 -1 1 9.950799e-03 276.341 629.1488)" class="st3" cx="455.9" cy="175" rx="16.5" ry="16.5"/>
<g class="st4">
	<g class="st5">
		<g>
			<defs>
				<path id="SVGID_1_" d="M80.9,342h1227.3c4.9,0,8.9,4,8.9,8.9v2193.3c0,4.9-4,8.9-8.9,8.9H80.9c-4.9,0-8.9-4-8.9-8.9V350.9
					C72,346,76,342,80.9,342z"/>
			</defs>
			<clipPath id="SVGID_2_">
				<use xlink:href="#SVGID_1_"  style="overflow:visible;"/>
			</clipPath>
			<g class="st6">
				
					<image style="overflow:visible;enable-background:new    ;" width="1242" height="2208" xlink:href="978DB4538CFDC98D.png"  transform="matrix(1 0 0 1 73.2511 342.5)">
				</image>
			</g>
		</g>
	</g>
</g>
</svg>
