<?xml version="1.0" encoding="utf-8"?>
<!-- Generator: Adobe Illustrator 22.0.1, SVG Export Plug-In . SVG Version: 6.00 Build 0)  -->
<svg version="1.1" id="Layer_1" xmlns="http://www.w3.org/2000/svg" xmlns:xlink="http://www.w3.org/1999/xlink" x="0px" y="0px"
	 viewBox="0 0 224.4545 155.467" style="enable-background:new 0 0 224.4545 155.467;" xml:space="preserve">
<style type="text/css">
	.st0{fill:#689F38;}
</style>
<path class="st0" d="M224.2207,1.0573c-0.4892-0.9204-1.6075-1.3081-2.5616-0.8887
	c-36.2802,15.9809-70.0957,35.8115-100.5092,58.9419c-19.94,15.1616-38.5201,31.8384-55.2496,49.5857
	C46.3764,94.0094,25.1909,80.724,2.9072,69.196c-0.8736-0.4517-1.9463-0.1978-2.5254,0.5971
	c-0.5795,0.7969-0.4907,1.8958,0.2081,2.5879c25.5625,25.3208,48.2588,52.9736,67.4594,82.188
	c0.3686,0.561,0.9946,0.8979,1.665,0.8979c0.0083,0,0.0175,0,0.0268,0c0.6812-0.0088,1.3091-0.3658,1.667-0.9438
	c36.438-58.9009,89.0396-111.0628,152.1172-150.8452C224.4072,3.1208,224.7109,1.9777,224.2207,1.0573z"/>
</svg>
