<?xml version="1.0" encoding="utf-8"?>
<!-- Generator: Adobe Illustrator 21.1.0, SVG Export Plug-In . SVG Version: 6.00 Build 0)  -->
<svg version="1.1" id="Layer_1" xmlns="http://www.w3.org/2000/svg" xmlns:xlink="http://www.w3.org/1999/xlink" x="0px" y="0px"
	 viewBox="0 0 316.73 221.13" style="enable-background:new 0 0 316.73 221.13;" xml:space="preserve">
<style type="text/css">
	.st0{fill:#808285;}
</style>
<g>
	<path class="st0" d="M282.94,22.44H33.79v149.25h249.16V22.44z M278.94,167.68H37.79V26.44h241.16V167.68z"/>
	<path class="st0" d="M158.36,19.32c3.45,0,6.25-2.8,6.25-6.25c0-3.45-2.8-6.25-6.25-6.25c-3.45,0-6.25,2.8-6.25,6.25
		C152.11,16.52,154.92,19.32,158.36,19.32z M158.36,10.82c1.24,0,2.25,1.01,2.25,2.25s-1.01,2.25-2.25,2.25
		c-1.24,0-2.25-1.01-2.25-2.25S157.12,10.82,158.36,10.82z"/>
	<path class="st0" d="M314.73,190.14h-17.09V17.16c0-9.46-7.7-17.16-17.17-17.16H36.26c-9.46,0-17.16,7.7-17.16,17.16v172.97H2
		c-1.1,0-2,0.9-2,2v14.33c0,8.08,8.16,14.66,18.19,14.66h280.34c10.03,0,18.19-6.58,18.19-14.66v-14.33
		C316.73,191.03,315.83,190.14,314.73,190.14z M23.09,17.16C23.09,9.91,29,4,36.26,4h244.22c7.26,0,13.17,5.91,13.17,13.16v172.97
		H189.81h-0.37c0,0-0.01,0-0.01,0h0c-0.01,0-0.02,0-0.03,0c-0.12,0-0.24,0.01-0.36,0.04c-0.05,0.01-0.1,0.03-0.16,0.05
		c-0.07,0.02-0.15,0.04-0.21,0.07c-0.05,0.02-0.1,0.05-0.15,0.08c-0.06,0.03-0.13,0.06-0.19,0.1c-0.04,0.03-0.08,0.06-0.12,0.09
		c-0.06,0.05-0.13,0.09-0.18,0.15c-0.04,0.04-0.07,0.08-0.11,0.13c-0.05,0.06-0.1,0.11-0.14,0.17c-0.07,0.1-0.12,0.2-0.17,0.31
		c0,0.01-0.01,0.02-0.01,0.03l0,0c0,0,0,0.01-0.01,0.01l-2.81,6.57c-0.07,0.07-0.17,0.12-0.27,0.12H159.3h-8.9h-16.66
		c-0.1,0-0.2-0.04-0.27-0.12l-2.81-6.59c-0.35-0.82-1.18-1.27-2.02-1.2c-0.05,0-0.11-0.02-0.16-0.02h-1H23.09V17.16z M312.73,206.46
		c0,5.88-6.37,10.66-14.19,10.66H18.19c-7.83,0-14.19-4.78-14.19-10.66v-12.33h15.09h108.39h0.02l2.38,5.56
		c0.04,0.09,0.08,0.17,0.13,0.25c0.79,1.3,2.22,2.11,3.74,2.11h16.66h8.9h25.21c1.52,0,2.95-0.81,3.74-2.11
		c0.05-0.08,0.09-0.16,0.13-0.25l2.38-5.56h106.88h15.09V206.46z"/>
	<path class="st0" d="M134.86,84.23c1.1,0,2-0.9,2-2s-0.9-2-2-2h-43c-1.1,0-2,0.9-2,2s0.9,2,2,2H134.86z"/>
	<path class="st0" d="M76.87,90.23c0,1.1,0.9,2,2,2h56c1.1,0,2-0.9,2-2s-0.9-2-2-2h-56C77.76,88.23,76.87,89.13,76.87,90.23z"/>
	<path class="st0" d="M62.87,100.23h72c1.1,0,2-0.9,2-2s-0.9-2-2-2h-72c-1.1,0-2,0.9-2,2S61.76,100.23,62.87,100.23z"/>
	<path class="st0" d="M134.86,108.23c1.1,0,2-0.9,2-2s-0.9-2-2-2h-25c-1.1,0-2,0.9-2,2s0.9,2,2,2H134.86z"/>
	<path class="st0" d="M136.86,114.23c0-1.1-0.9-2-2-2h-35c-1.1,0-2,0.9-2,2s0.9,2,2,2h35C135.97,116.23,136.86,115.33,136.86,114.23
		z"/>
	<path class="st0" d="M76.87,76.23h55.99h2c1.11,0,2-0.89,2-2V63.48c0-0.18,0.02-0.35,0.05-0.52l35.93,23.02l-35.86,46.11
		c-0.07-0.25-0.11-0.51-0.11-0.78v-9.1c0-1.09-0.89-1.98-1.98-1.98h-0.04c-1.09,0-1.98,0.89-1.98,1.98v9.11
		c0,2.32,1.12,4.37,2.84,5.66l0,0c0,0,0,0,0,0c1.18,0.89,2.65,1.42,4.25,1.42h108.83c1.59,0,3.05-0.53,4.23-1.41c0,0,0,0,0.01,0
		c0,0,0,0,0.01-0.01c1.72-1.29,2.83-3.34,2.83-5.66V63.48c0-1.83-0.7-3.5-1.85-4.76c-0.01-0.01-0.01-0.01-0.02-0.02
		c-1.29-1.41-3.15-2.3-5.21-2.3H139.95c-2.07,0-3.92,0.89-5.22,2.3c-0.01,0.01-0.02,0.02-0.03,0.03c-1.14,1.26-1.85,2.93-1.85,4.76
		v8.74H76.87c-1.11,0-2,0.9-2,2C74.87,75.34,75.76,76.23,76.87,76.23z M140.25,134.4l35.97-46.25l17.06,10.93
		c0.02,0.01,0.04,0.02,0.06,0.03c0.11,0.06,0.22,0.11,0.34,0.15c0.05,0.02,0.1,0.05,0.16,0.06c0.16,0.04,0.32,0.07,0.49,0.07
		c0.01,0,0.02,0,0.03,0c0,0,0,0,0,0c0,0,0,0,0,0c0.01,0,0.02,0,0.03,0c0.17,0,0.33-0.03,0.49-0.07c0.05-0.01,0.1-0.04,0.16-0.06
		c0.12-0.04,0.23-0.09,0.34-0.15c0.02-0.01,0.04-0.02,0.06-0.03l17.06-10.93l35.97,46.25H140.25z M251.81,62.96
		c0.03,0.17,0.05,0.34,0.05,0.51v67.84c0,0.27-0.05,0.52-0.11,0.77l-35.86-46.11L251.81,62.96z M248.4,60.4l-54.04,34.62
		L140.33,60.4H248.4z"/>
</g>
</svg>
