<?xml version="1.0" encoding="utf-8"?>
<!-- Generator: Adobe Illustrator 21.1.0, SVG Export Plug-In . SVG Version: 6.00 Build 0)  -->
<svg version="1.1" id="Layer_1" xmlns="http://www.w3.org/2000/svg" xmlns:xlink="http://www.w3.org/1999/xlink" x="0px" y="0px"
	 viewBox="0 0 109.9 127.2" style="enable-background:new 0 0 109.9 127.2;" xml:space="preserve">
<style type="text/css">
	.st0{fill:#FF7A4F;}
	.st1{fill:#FFFFFF;}
	.st2{fill:#FCDED9;}
</style>
<title>Artboard 2</title>
<path class="st0" d="M83.3,7.9H7.9v107.6l2.1,2.1l12.2-12.2c1.6-1.5,4.1-1.5,5.6,0L40,117.6l12.2-12.2c1.6-1.5,4.1-1.5,5.6,0
	L70,117.6l12.2-12.2c1.6-1.5,4.1-1.5,5.6,0l12.2,12.2l2.1-2.1V26.6L83.3,7.9z M4,0h80.9C86,0,87,0.4,87.8,1.2l21,21
	c0.7,0.7,1.2,1.8,1.2,2.8v92.2c0,1.1-0.4,2.1-1.2,2.8l-6,6c-1.6,1.5-4.1,1.5-5.6,0l-12.2-12.1l-12.2,12.2c-1.6,1.5-4.1,1.5-5.6,0
	L55,113.9l-12.2,12.2c-1.6,1.5-4.1,1.5-5.6,0L25,113.9l-12.2,12.2c-1.6,1.5-4.1,1.5-5.6,0l-6-6c-0.8-0.8-1.2-1.8-1.2-2.9l0,0V4
	C0,1.8,1.8,0,4,0z"/>
<polygon class="st1" points="4,4 84.9,4 105.9,25 105.9,117.2 99.9,123.3 84.9,108.3 69.9,123.3 55,108.3 40,123.3 25,108.3 
	10,123.3 4,117.2 "/>
<path class="st0" d="M80.9,25V4l0,0c0-2.2,1.9-4,4.1-3.9c1,0,2,0.4,2.7,1.1l21,21c1.5,1.6,1.5,4.1-0.1,5.7c-0.7,0.7-1.7,1.1-2.7,1.1
	h-21C82.7,29,80.9,27.2,80.9,25 M88.9,13.6V21h7.5L88.9,13.6z"/>
<polygon class="st1" points="84.9,4 84.9,25 105.9,25 "/>
<rect x="25.4" y="37" transform="matrix(0.7071 -0.7071 0.7071 0.7071 -17.0833 36.8167)" class="st0" width="21" height="4"/>
<rect x="33.9" y="28.5" transform="matrix(0.7071 -0.7071 0.7071 0.7071 -17.0812 36.8217)" class="st0" width="4" height="21"/>
<rect x="63.5" y="37" transform="matrix(0.7071 -0.7071 0.7071 0.7071 -5.9162 63.7607)" class="st0" width="21" height="4"/>
<rect x="72" y="28.5" transform="matrix(0.7071 -0.7071 0.7071 0.7071 -5.9212 63.7686)" class="st0" width="4" height="21"/>
<path class="st0" d="M25.1,66.3c-1.1,0-2-0.9-2-2s0.9-2,2-2h59.7c1.1,0,2,0.9,2,2s-0.9,2-2,2H25.1z"/>
<path class="st0" d="M82.8,66.3H70.5v6.2c0,3.4,2.8,6.2,6.2,6.2c3.4,0,6.2-2.8,6.2-6.2V66.3z M68.5,62.3h18.3v10.2
	c0,5.6-4.5,10.1-10.1,10.1S66.5,78,66.5,72.4V62.3L68.5,62.3z"/>
<path class="st0" d="M74.7,64.3c0-1.1,0.9-2,2-2s2,0.9,2,2v5.5c0,1.1-0.9,2-2,2s-2-0.9-2-2V64.3z"/>
<path class="st2" d="M76.6,71.8c-1.1,0-2-0.9-2-2v-3.5h-4.2v6.2c0,3.4,2.8,6.2,6.2,6.2c3.4,0,6.2-2.8,6.2-6.2v-6.2h-4.2v3.5
	C78.6,70.9,77.7,71.8,76.6,71.8"/>
</svg>
