<?xml version="1.0" encoding="utf-8"?>
<!-- Generator: Adobe Illustrator 21.1.0, SVG Export Plug-In . SVG Version: 6.00 Build 0)  -->
<svg version="1.1" id="Layer_1" xmlns="http://www.w3.org/2000/svg" xmlns:xlink="http://www.w3.org/1999/xlink" x="0px" y="0px"
	 viewBox="0 0 83.8 100" style="enable-background:new 0 0 83.8 100;" xml:space="preserve">
<style type="text/css">
	.st0{fill:#FF7A4F;}
	.st1{fill:#808285;}
</style>
<g>
	<path class="st0" d="M41.9,29.5c-1,0-1.9,0.9-1.9,1.9v26.9c0,1,0.8,1.9,1.9,1.9h26.7c1,0,1.9-0.8,1.9-1.9v0c0-0.1,0-0.1,0-0.2
		C70.5,42.3,57.7,29.5,41.9,29.5z M43.8,56.4v-23c12.2,0.9,22,10.8,22.8,23H43.8z"/>
	<path class="st1" d="M76,33.8L76,33.8l3-3c2.1-2,2.1-5.4,0-7.4L75.7,20c-2.1-2-5.4-2-7.4,0l-3,3c-0.1,0.1-0.1,0.1-0.2,0.2
		c-5-3.3-10.7-5.6-16.9-6.6v-4.1c1.5-0.1,2.8-0.8,3.8-1.8c1.2-1.2,1.8-2.8,1.8-4.5c0-3.5-2.8-6.3-6.3-6.3H35.9
		c-3.5,0-6.3,2.8-6.3,6.3c0,3.3,2.5,6,5.7,6.3v4.1C15.3,19.9,0,37.2,0,58.1C0,81.2,18.8,100,41.9,100s41.9-18.8,41.9-41.9
		C83.8,49,80.9,40.7,76,33.8z M70.9,22.7c0.6-0.6,1.5-0.6,2.1,0l3.3,3.3c0.6,0.6,0.6,1.5,0,2.1l-2.7,2.7c-1.7-1.9-3.5-3.7-5.5-5.3
		L70.9,22.7z M33.4,6.3c0-1.4,1.1-2.5,2.5-2.5h11.7c1.4,0,2.5,1.1,2.5,2.5c0,0.7-0.3,1.3-0.7,1.8s-1.1,0.7-1.8,0.7h-1.3h-9.1h-1.3
		C34.5,8.8,33.4,7.7,33.4,6.3z M44.4,12.6v3.6H42c0,0,0,0-0.1,0s0,0-0.1,0h-2.8v-3.6C39.1,12.6,44.4,12.6,44.4,12.6z M43.8,96.1
		v-3.8c0-1.1-0.8-1.9-1.9-1.9c-1,0-1.9,0.8-1.9,1.9v3.8c-19.5-1-35.1-16.6-36.1-36c0,0,0,0,0.1,0h3.8c1.1,0,1.9-0.8,1.9-1.9
		c0-1-0.9-1.9-1.9-1.9H3.9c0,0,0,0-0.1,0C4.8,36.8,20.5,21,40,20c0,0.1,0,0.1,0,0.2V24c0,1,0.8,1.9,1.9,1.9c1,0,1.9-0.9,1.9-1.9
		v-3.8c0-0.1,0-0.1,0-0.2C63.3,21,79.1,36.8,80,56.3c0,0-0.1,0-0.1,0h-3.8c-1.1,0-1.9,0.8-1.9,1.9c0,1,0.8,1.9,1.9,1.9h3.8
		c0,0,0,0,0.1,0C78.9,79.6,63.3,95.2,43.8,96.1z"/>
</g>
</svg>
