<?xml version="1.0" encoding="utf-8"?>
<!-- Generator: Adobe Illustrator 21.0.2, SVG Export Plug-In . SVG Version: 6.00 Build 0)  -->
<svg version="1.1" id="Layer_1" xmlns="http://www.w3.org/2000/svg" xmlns:xlink="http://www.w3.org/1999/xlink" x="0px" y="0px"
	 viewBox="0 0 40 40" style="enable-background:new 0 0 40 40;" xml:space="preserve">
<style type="text/css">
	.st0{fill:#FF9900;}
	.st1{clip-path:url(#SVGID_2_);}
</style>
<circle class="st0" cx="20" cy="20" r="20"/>
<g>
	<defs>
		<circle id="SVGID_1_" cx="20" cy="20" r="20"/>
	</defs>
	<clipPath id="SVGID_2_">
		<use xlink:href="#SVGID_1_"  style="overflow:visible;"/>
	</clipPath>
	<path class="st1" d="M37.2895,26.7986c-0.1293-2.5538,0.0809-4.9884-0.1632-7.4172c0.2874-0.2318,0.4976-0.5431,0.8183-0.7417
		c0.8031,0.3098,2.0345-1.1541,2.0345-1.1541v-6.7123V0h-2.1082h-10.02H11.9245C9.1476,0,0,0,0,0v10.7278
		c0,0,1.0234,0.7049,1.3686,1.0725c0.3091,1.2242-0.6774,0.1351-0.0816,1.071c0.5135,0.1964,0.78,0.6428,1.1454,0.9894
		c0.2412-0.1964,0.1206-0.7583,0.4088-0.9071c0.3597,0.8147-0.6746,0.8291-0.7359,1.4842c0.3286,0.2802,0.6847,0.4211,1.0638,0.0823
		c0.4066,0.5785,1.1931,0.7742,1.6365,1.3188h0.9815c-0.2918-1.7398,1.7348-0.8414,2.21-1.9782
		c1.0783,0.1798,1.2892-0.5135,2.1269-0.5771c0.5193,0.5207,0.2911,1.794,1.391,1.7304c-0.0715-0.4008,0.1119-0.546,0.1639-0.8241
		c0.6327-0.0477,0.9735-0.3929,1.1447-0.9057c-0.0592,0.2513,0.0838,0.3004,0.0831,0.4947
		c0.3496-0.1423,0.7807-0.2022,1.3087-0.1647c0.065,0.3734,0.1105,0.767,0.4911,0.824c0.1755-0.2116-0.0751-0.4673,0.0816-0.5771
		c0.3301,0.2174,0.798,0.2954,1.0638,0.5771c-0.5012,0.0166-0.5417,0.4976-0.5734,0.988c0.1495,0.2903,0.7345,0.1394,0.8183,0.4954
		c-0.0332,0.3763-0.169,0.8118,0,1.1534c0.3077,0.2896,0.4319-0.0498,0.5727,0c-0.0419,0.3452,0.0455,0.559,0.1632,0.7417
		c0.3589-0.1964,0.7533-0.4839,1.3101-0.247c0.1481,0.4557-0.0318,1.2408,0.3279,1.4827c0.3041,0.1834,0.4911-0.3532,1.0631-0.1639
		c0.2268-1.118,1.1187-1.5658,1.9644-2.0612c-0.2275,0.5648,0.7395,0.702,0.9808,0.6594c0.9353-0.1625,0.993-2.0251,1.7189-2.3075
		c0.2954,1.2039,1.5282,0.1856,2.2093,0.0831c1.3946,2.332,3.5605,3.887,5.7293,5.439c0.3575,1.2393,0.1459,2.3941,0.0816,3.6263
		c-0.1105,2.1616,0.2809,4.7016-0.0816,6.344c-0.3914,1.7752-0.3561,3.7274-1.0638,5.1913
		c-0.0585-2.6599-0.3987-5.0389-1.5557-6.5917c-0.6955-0.4781-1.7052-0.7302-1.8005-1.5658
		c-0.1264-1.1267,0.4182-2.2381-0.5698-3.2139c-0.3236-0.3163-1.2025-0.8443-2.0475-0.7403
		c-0.6572,0.0802-2.2786,1.7615-2.2093,2.4721c0.0809,0.8558,1.4596,0.7056,1.1454,2.1428c0.494-0.0108,0.8349,0.4954,1.3087,0.7403
		c0.4384-0.0455,0.6587-0.3142,0.8183,0.1654c-1.4177,0.6052-1.8951,2.1565-2.8629,3.2146
		c-1.2632,0.2289-1.638-0.4369-2.1277-0.9873c0.3821-0.5496,0.7266-1.1397,0.9815-1.8135c-1.0739-0.733-2.0908-1.5217-3.1908-2.2252
		c-0.3091,0.9512-0.6399,1.8821-1.0645,2.7191c0.3322,0.8226,1.4025,1.0523,1.8814,1.8128c0.1632,0.2578,0.1011,0.598,0.3272,0.8226
		c0.4341,0.4319,1.1895,0.2781,1.5564,0.8248c-0.954,1.2682-1.9247,2.5126-2.7834,3.8747c-0.2477,0.1004,0.0888,0.2838,0,0.4947
		c-0.6709,0.889-2.691,0.7879-3.0911,1.9514c1.2545,0.7692,3.0023,0.1452,4.4185,0.5763c0.4052-0.2253,0-1.6315,0.3084-1.9507
		c0.1921,0.0246,0.3091,0.1307,0.572,0.0831c0.871-0.8847,1.7261-1.7788,2.7011-2.5559c1.2841,1.0429,2.4974,2.1551,4.4192,2.5559
		c-1.5975,0.5287-4.9912,2.1435-4.9912,2.1435H40v-6.3873C40,34.4259,37.4636,30.1728,37.2895,26.7986z"/>
</g>
</svg>
