<?xml version="1.0" encoding="utf-8"?>
<!-- Generator: Adobe Illustrator 21.0.2, SVG Export Plug-In . SVG Version: 6.00 Build 0)  -->
<svg version="1.1" id="Isolation_Mode" xmlns="http://www.w3.org/2000/svg" xmlns:xlink="http://www.w3.org/1999/xlink" x="0px"
	 y="0px" viewBox="0 0 264 56" style="enable-background:new 0 0 264 56;" xml:space="preserve">
<style type="text/css">
	.st0{fill:#FF9900;}
	.st1{fill:#333333;}
</style>
<path class="st0" d="M21.6,55.2L5.8,36H5.7v19.2H0V0.1h5.7v31.3h0.1l13.5-13h7.4l-16.2,15l18.3,21.8H21.6L21.6,55.2z"/>
<path class="st0" d="M35.4,10.7c-2.2,0-4-1.8-4-4s1.8-4,4-4s4,1.8,4,4S37.6,10.7,35.4,10.7z M32.6,55.2V18.4h5.7v36.8
	C38.3,55.2,32.6,55.2,32.6,55.2z"/>
<path class="st0" d="M70.2,55.2V32.5c0-4.6-0.8-9.7-6.4-9.7c-4.5,0-8.6,3.2-11.4,5.6v26.8h-5.7V18.4h4.7l0.8,4.4
	c4-3.1,8-5.4,13.2-5.4c5.3,0,10.6,3.8,10.6,13v24.8L70.2,55.2L70.2,55.2z"/>
<path class="st0" d="M101,56c-10.3,0-18.9-6-18.9-18.7c0-11.4,8.3-19.9,19-19.9c2.6,0,4.5,0.2,6,0.6V0h5.7v53.3
	C110.5,54.7,106.2,56,101,56z M107,23.3c-1.5-0.5-2.8-0.9-5.7-0.9c-7.2,0-13.5,5.7-13.5,14.5c0,8.3,4.6,14.3,14.2,14.3
	c1.9,0,3.9-0.4,5.1-0.9L107,23.3L107,23.3z"/>
<path class="st0" d="M127.5,56c-4.5,0-6.5-2.9-6.5-6.8V0.1h5.7v46.6c0,3.5,0.9,4.2,3,4.2c0.4,0,1,0,1.9-0.2l0.7,4.1
	C130.7,55.6,129.4,56,127.5,56z"/>
<path class="st0" d="M141.6,37.8c0,7,4,13.3,12,13.3c3.3,0,6.8-1.3,9-2.7l1.8,4C161.7,54.3,157,56,153,56
	c-11.8,0-17.4-9.4-17.4-19.9c0-10.7,6.1-18.6,14.9-18.6c9.5,0,14.7,7.6,14.7,19c0,0.4,0,0.9,0,1.3H141.6L141.6,37.8z M150.6,22.3
	c-5.4,0-8.9,4.8-8.9,10.7h17.4C159,27.8,156.2,22.3,150.6,22.3z"/>
<g>
	<path class="st1" d="M211.4,52.5H206l-12.8-17.2l-3.7,3.2v14H185V16.4h4.5v17.8l3.1-3.4l12.9-14.4h5.3l-14.3,15.7L211.4,52.5z"/>
	<path class="st1" d="M220.8,52.5h-4.5V16.4h20.2v4h-15.6v12.8h14.7v4h-14.7V52.5z"/>
	<path class="st1" d="M252,15.9c3.3,0,5.9,0.8,7.9,2.3s2.9,3.6,2.9,6.3c0,1.8-0.5,3.4-1.6,4.9c-1.1,1.4-2.8,2.8-5.2,4
		c2.9,1.4,5,2.9,6.2,4.4c1.2,1.5,1.8,3.3,1.8,5.3c0,3-1.1,5.4-3.2,7.2c-2.1,1.8-5,2.7-8.6,2.7c-3.8,0-6.8-0.8-8.9-2.5
		c-2.1-1.7-3.2-4.1-3.2-7.2c0-4.1,2.5-7.3,7.5-9.6c-2.2-1.3-3.8-2.7-4.8-4.1s-1.5-3.2-1.5-5c0-2.6,1-4.7,2.9-6.3
		C246.2,16.7,248.8,15.9,252,15.9z M244.4,43.4c0,1.9,0.7,3.4,2,4.5c1.4,1.1,3.2,1.6,5.6,1.6c2.4,0,4.2-0.6,5.6-1.7
		c1.3-1.1,2-2.6,2-4.6c0-1.6-0.6-3-1.9-4.2c-1.3-1.2-3.4-2.4-6.5-3.5c-2.4,1-4.1,2.2-5.2,3.4C245,40.1,244.4,41.6,244.4,43.4z
		 M252,19.5c-1.9,0-3.5,0.5-4.6,1.4c-1.2,0.9-1.7,2.2-1.7,3.8c0,1,0.2,1.9,0.7,2.7s1.1,1.5,1.9,2.1s2.2,1.3,4,2.1
		c2.3-0.9,3.9-2,4.8-3.1c0.9-1.1,1.4-2.4,1.4-3.9c0-1.6-0.6-2.9-1.8-3.8C255.5,20,254,19.5,252,19.5z"/>
</g>
</svg>
