<?xml version="1.0" encoding="utf-8"?>
<!-- Generator: Adobe Illustrator 21.0.2, SVG Export Plug-In . SVG Version: 6.00 Build 0)  -->
<svg version="1.1" id="Ñëîé_1" xmlns="http://www.w3.org/2000/svg" xmlns:xlink="http://www.w3.org/1999/xlink" x="0px" y="0px"
	 viewBox="0 0 1053.6 1500" style="enable-background:new 0 0 1053.6 1500;" xml:space="preserve">
<style type="text/css">
	.st0{fill:#FFFFFF;}
	.st1{fill:#808285;}
</style>
<g>
	<g>
		<path class="st0" d="M526.8,1338.02c-97.45,0-189.07-37.95-257.97-106.85s-106.85-160.52-106.85-257.97
			c0-97.45,37.95-189.07,106.85-257.97c68.9-68.9,160.52-106.85,257.97-106.85s189.07,37.95,257.97,106.85
			c68.9,68.9,106.85,160.52,106.85,257.97c0,97.45-37.95,189.06-106.85,257.97C715.87,1300.08,624.25,1338.02,526.8,1338.02z
			 M467.7,1145.13h124.85V1025.5c37.24-21.95,60.64-62.21,60.64-106.07c0-67.86-55.21-123.06-123.06-123.06
			s-123.06,55.21-123.06,123.06c0,43.86,23.4,84.11,60.64,106.07V1145.13z"/>
		<path class="st1" d="M526.8,629.38c46.44,0,91.46,9.08,133.82,27c40.94,17.31,77.71,42.11,109.3,73.7
			c31.59,31.59,56.38,68.36,73.7,109.3c17.92,42.36,27,87.39,27,133.82c0,46.44-9.08,91.46-27,133.82
			c-17.31,40.94-42.11,77.71-73.7,109.3c-31.59,31.59-68.36,56.38-109.3,73.7c-42.36,17.92-87.39,27-133.82,27
			c-46.44,0-91.46-9.08-133.82-27c-40.94-17.31-77.71-42.11-109.3-73.7c-31.59-31.59-56.38-68.36-73.7-109.3
			c-17.92-42.36-27-87.38-27-133.82c0-46.44,9.08-91.46,27-133.82c17.31-40.94,42.11-77.71,73.7-109.3
			c31.59-31.59,68.36-56.38,109.3-73.7C435.34,638.47,480.36,629.38,526.8,629.38 M446.7,1036.89v87.24v42h42h82.85h42v-42v-87.24
			c37.54-26.7,60.64-70.3,60.64-117.45c0-79.44-64.63-144.06-144.06-144.06c-79.44,0-144.06,64.63-144.06,144.06
			C386.05,966.59,409.16,1010.18,446.7,1036.89 M526.8,587.38c-213.09,0-385.82,172.73-385.82,385.82
			c0,213.09,172.73,385.82,385.82,385.82c213.09,0,385.82-172.73,385.82-385.82C912.62,760.11,739.89,587.38,526.8,587.38
			L526.8,587.38z M488.7,1124.13v-111.39c-35.72-15.9-60.64-51.68-60.64-93.3c0-56.39,45.7-102.06,102.06-102.06
			c56.36,0,102.06,45.67,102.06,102.06c0,41.62-24.93,77.4-60.64,93.3v111.39H488.7L488.7,1124.13z"/>
	</g>
	<g>
		<path class="st1" d="M526.8,100.79c162.62,0,294.93,132.31,294.93,294.93v85.31c14.89,8.01,29.51,16.67,43.79,25.92l-0.01-122.13
			l-0.68-10.74c-5.43-85.62-43.09-165.44-106.04-224.75C695.59,89.79,613.2,57,526.8,57c-86.4,0-168.79,32.79-231.98,92.33
			c-62.95,59.31-100.61,139.13-106.04,224.75l-0.7,11.1v121.77c14.28-9.26,28.9-17.91,43.79-25.93v-85.31
			C231.87,233.1,364.17,100.79,526.8,100.79z"/>
	</g>
	<g>
		<path class="st1" d="M1027.6,973.21c0-276.14-224.66-500.8-500.8-500.8C250.66,472.41,26,697.07,26,973.21
			C26,1249.34,250.66,1474,526.8,1474C802.94,1474,1027.6,1249.34,1027.6,973.21z M526.8,1436.38
			c-255.4,0-463.18-207.78-463.18-463.18c0-255.4,207.78-463.18,463.18-463.18c255.4,0,463.18,207.78,463.18,463.18
			C989.98,1228.6,782.2,1436.38,526.8,1436.38z"/>
	</g>
</g>
</svg>
