<?xml version="1.0" encoding="utf-8"?>
<!-- Generator: Adobe Illustrator 21.0.2, SVG Export Plug-In . SVG Version: 6.00 Build 0)  -->
<svg version="1.1" id="Ñëîé_1" xmlns="http://www.w3.org/2000/svg" xmlns:xlink="http://www.w3.org/1999/xlink" x="0px" y="0px"
	 viewBox="0 0 550.04 452.06" style="enable-background:new 0 0 550.04 452.06;" xml:space="preserve">
<style type="text/css">
	.st0{fill:#FFFFFF;}
	.st1{fill:#FEFEFE;}
	.st2{fill:#FDFDFD;}
	.st3{fill:#FCFCFC;}
	.st4{fill:#FBFBFB;}
	.st5{fill:#FAFAFA;}
	.st6{fill:#F9F9F9;}
	.st7{fill:#F8F8F8;}
	.st8{fill:#F7F7F7;}
	.st9{fill:#F6F6F6;}
	.st10{fill:#F5F5F5;}
	.st11{fill:#F4F4F4;}
	.st12{fill:#F3F3F3;}
	.st13{fill:#F2F2F2;}
	.st14{fill:#F1F1F1;}
	.st15{fill:#F0F0F0;}
	.st16{fill:#EFEFEF;}
	.st17{fill:#EEEEEE;}
	.st18{fill:#EDEDED;}
	.st19{fill:#ECECEC;}
	.st20{fill:#EBEBEB;}
	.st21{fill:#EAEAEA;}
	.st22{fill:#E9E9E9;}
	.st23{fill:#E8E8E8;}
	.st24{fill:#E7E7E7;}
	.st25{fill:#E6E6E6;}
	.st26{fill:#E5E5E5;}
	.st27{fill:#E4E4E4;}
	.st28{fill:#E3E3E3;}
	.st29{fill:#E2E2E2;}
	.st30{fill:#E1E1E1;}
	.st31{fill:#E0E0E0;}
	.st32{fill:#DFDFDF;}
	.st33{fill:#DEDEDE;}
	.st34{fill:#DDDDDD;}
	.st35{fill:#DCDCDC;}
	.st36{fill:#DBDBDB;}
	.st37{fill:#DADADA;}
	.st38{fill:#D9D9D9;}
	.st39{fill:#D8D8D8;}
	.st40{fill:#D7D7D7;}
	.st41{fill:#D6D6D6;}
	.st42{fill:#D5D5D5;}
	.st43{fill:#D4D4D4;}
	.st44{fill:#D3D3D3;}
	.st45{fill:#D2D2D2;}
	.st46{fill:#D1D1D1;}
	.st47{fill:#D0D0D0;}
	.st48{fill:#CFCFCF;}
	.st49{fill:#CECECE;}
	.st50{fill:#CDCDCD;}
	.st51{fill:#CCCCCC;}
	.st52{fill:#CBCBCB;}
	.st53{fill:#CACACA;}
	.st54{fill:#C9C9C9;}
	.st55{fill:#C8C8C8;}
	.st56{fill:#C7C7C7;}
	.st57{fill:#C6C6C6;}
	.st58{fill:#C5C5C5;}
	.st59{fill:#C4C4C4;}
	.st60{fill:#C3C3C3;}
	.st61{fill:#C2C2C2;}
	.st62{fill:#C1C1C1;}
	.st63{fill:#C0C0C0;}
	.st64{fill:#BFBFBF;}
	.st65{fill:#BEBEBE;}
	.st66{fill:#BDBDBD;}
	.st67{fill:#BCBCBC;}
	.st68{fill:#BBBBBB;}
	.st69{fill:#BABABA;}
	.st70{fill:#B9B9B9;}
	.st71{fill:#B8B8B8;}
	.st72{fill:#B7B7B7;}
	.st73{fill:#B6B6B6;}
	.st74{fill:#B5B5B5;}
	.st75{fill:#B4B4B4;}
	.st76{fill:#B3B3B3;}
	.st77{fill:#B2B2B2;}
	.st78{fill:#58595B;}
</style>
<g>
	<ellipse class="st0" cx="275.02" cy="429.39" rx="275.02" ry="22.67"/>
	<ellipse class="st1" cx="275.02" cy="429.37" rx="272.4" ry="22.47"/>
	<ellipse class="st2" cx="275.02" cy="429.36" rx="269.78" ry="22.26"/>
	<ellipse class="st2" cx="275.02" cy="429.34" rx="267.16" ry="22.06"/>
	<ellipse class="st3" cx="275.02" cy="429.32" rx="264.54" ry="21.85"/>
	<ellipse class="st4" cx="275.02" cy="429.3" rx="261.92" ry="21.65"/>
	<ellipse class="st5" cx="275.02" cy="429.29" rx="259.3" ry="21.45"/>
	<ellipse class="st5" cx="275.02" cy="429.27" rx="256.67" ry="21.24"/>
	<ellipse class="st6" cx="275.02" cy="429.25" rx="254.05" ry="21.04"/>
	<ellipse class="st7" cx="275.02" cy="429.23" rx="251.43" ry="20.83"/>
	<ellipse class="st8" cx="275.02" cy="429.21" rx="248.81" ry="20.63"/>
	<ellipse class="st8" cx="275.02" cy="429.2" rx="246.19" ry="20.42"/>
	<ellipse class="st9" cx="275.02" cy="429.18" rx="243.57" ry="20.22"/>
	<ellipse class="st10" cx="275.02" cy="429.16" rx="240.95" ry="20.02"/>
	<ellipse class="st11" cx="275.02" cy="429.14" rx="238.33" ry="19.81"/>
	<ellipse class="st11" cx="275.02" cy="429.13" rx="235.71" ry="19.61"/>
	<ellipse class="st12" cx="275.02" cy="429.11" rx="233.08" ry="19.4"/>
	<ellipse class="st13" cx="275.02" cy="429.09" rx="230.46" ry="19.2"/>
	<ellipse class="st14" cx="275.02" cy="429.07" rx="227.84" ry="18.99"/>
	<ellipse class="st14" cx="275.02" cy="429.06" rx="225.22" ry="18.79"/>
	<ellipse class="st15" cx="275.02" cy="429.04" rx="222.6" ry="18.58"/>
	<ellipse class="st16" cx="275.02" cy="429.02" rx="219.98" ry="18.38"/>
	<ellipse class="st17" cx="275.02" cy="429" rx="217.36" ry="18.18"/>
	<ellipse class="st18" cx="275.02" cy="428.98" rx="214.74" ry="17.97"/>
	<ellipse class="st18" cx="275.02" cy="428.97" rx="212.11" ry="17.77"/>
	<ellipse class="st19" cx="275.02" cy="428.95" rx="209.49" ry="17.56"/>
	<ellipse class="st20" cx="275.02" cy="428.93" rx="206.87" ry="17.36"/>
	<ellipse class="st21" cx="275.02" cy="428.91" rx="204.25" ry="17.15"/>
	<ellipse class="st21" cx="275.02" cy="428.9" rx="201.63" ry="16.95"/>
	<ellipse class="st22" cx="275.02" cy="428.88" rx="199.01" ry="16.75"/>
	<ellipse class="st23" cx="275.02" cy="428.86" rx="196.39" ry="16.54"/>
	<ellipse class="st24" cx="275.02" cy="428.84" rx="193.77" ry="16.34"/>
	<ellipse class="st24" cx="275.02" cy="428.82" rx="191.15" ry="16.13"/>
	<ellipse class="st25" cx="275.02" cy="428.81" rx="188.52" ry="15.93"/>
	<ellipse class="st26" cx="275.02" cy="428.79" rx="185.9" ry="15.72"/>
	<ellipse class="st27" cx="275.02" cy="428.77" rx="183.28" ry="15.52"/>
	<ellipse class="st27" cx="275.02" cy="428.75" rx="180.66" ry="15.31"/>
	<ellipse class="st28" cx="275.02" cy="428.74" rx="178.04" ry="15.11"/>
	<ellipse class="st29" cx="275.02" cy="428.72" rx="175.42" ry="14.91"/>
	<ellipse class="st30" cx="275.02" cy="428.7" rx="172.8" ry="14.7"/>
	<ellipse class="st30" cx="275.02" cy="428.68" rx="170.18" ry="14.5"/>
	<ellipse class="st31" cx="275.02" cy="428.67" rx="167.56" ry="14.29"/>
	<ellipse class="st32" cx="275.02" cy="428.65" rx="164.93" ry="14.09"/>
	<ellipse class="st33" cx="275.02" cy="428.63" rx="162.31" ry="13.88"/>
	<ellipse class="st34" cx="275.02" cy="428.61" rx="159.69" ry="13.68"/>
	<ellipse class="st34" cx="275.02" cy="428.59" rx="157.07" ry="13.48"/>
	<ellipse class="st35" cx="275.02" cy="428.58" rx="154.45" ry="13.27"/>
	<ellipse class="st36" cx="275.02" cy="428.56" rx="151.83" ry="13.07"/>
	<ellipse class="st37" cx="275.02" cy="428.54" rx="149.21" ry="12.86"/>
	<ellipse class="st37" cx="275.02" cy="428.52" rx="146.59" ry="12.66"/>
	<ellipse class="st38" cx="275.02" cy="428.51" rx="143.96" ry="12.45"/>
	<ellipse class="st39" cx="275.02" cy="428.49" rx="141.34" ry="12.25"/>
	<ellipse class="st40" cx="275.02" cy="428.47" rx="138.72" ry="12.04"/>
	<ellipse class="st40" cx="275.02" cy="428.45" rx="136.1" ry="11.84"/>
	<ellipse class="st41" cx="275.02" cy="428.43" rx="133.48" ry="11.64"/>
	<ellipse class="st42" cx="275.02" cy="428.42" rx="130.86" ry="11.43"/>
	<ellipse class="st43" cx="275.02" cy="428.4" rx="128.24" ry="11.23"/>
	<ellipse class="st43" cx="275.02" cy="428.38" rx="125.62" ry="11.02"/>
	<ellipse class="st44" cx="275.02" cy="428.36" rx="123" ry="10.82"/>
	<ellipse class="st45" cx="275.02" cy="428.35" rx="120.37" ry="10.61"/>
	<ellipse class="st46" cx="275.02" cy="428.33" rx="117.75" ry="10.41"/>
	<ellipse class="st47" cx="275.02" cy="428.31" rx="115.13" ry="10.2"/>
	<ellipse class="st47" cx="275.02" cy="428.29" rx="112.51" ry="10"/>
	<ellipse class="st48" cx="275.02" cy="428.28" rx="109.89" ry="9.8"/>
	<ellipse class="st49" cx="275.02" cy="428.26" rx="107.27" ry="9.59"/>
	<ellipse class="st50" cx="275.02" cy="428.24" rx="104.65" ry="9.39"/>
	<ellipse class="st50" cx="275.02" cy="428.22" rx="102.03" ry="9.18"/>
	<ellipse class="st51" cx="275.02" cy="428.2" rx="99.41" ry="8.98"/>
	<ellipse class="st52" cx="275.02" cy="428.19" rx="96.78" ry="8.77"/>
	<ellipse class="st53" cx="275.02" cy="428.17" rx="94.16" ry="8.57"/>
	<ellipse class="st53" cx="275.02" cy="428.15" rx="91.54" ry="8.37"/>
	<ellipse class="st54" cx="275.02" cy="428.13" rx="88.92" ry="8.16"/>
	<ellipse class="st55" cx="275.02" cy="428.12" rx="86.3" ry="7.96"/>
	<ellipse class="st56" cx="275.02" cy="428.1" rx="83.68" ry="7.75"/>
	<ellipse class="st56" cx="275.02" cy="428.08" rx="81.06" ry="7.55"/>
	<ellipse class="st57" cx="275.02" cy="428.06" rx="78.44" ry="7.34"/>
	<ellipse class="st58" cx="275.02" cy="428.04" rx="75.81" ry="7.14"/>
	<ellipse class="st59" cx="275.02" cy="428.03" rx="73.19" ry="6.93"/>
	<ellipse class="st59" cx="275.02" cy="428.01" rx="70.57" ry="6.73"/>
	<ellipse class="st60" cx="275.02" cy="427.99" rx="67.95" ry="6.53"/>
	<ellipse class="st61" cx="275.02" cy="427.97" rx="65.33" ry="6.32"/>
	<ellipse class="st62" cx="275.02" cy="427.96" rx="62.71" ry="6.12"/>
	<ellipse class="st63" cx="275.02" cy="427.94" rx="60.09" ry="5.91"/>
	<ellipse class="st63" cx="275.02" cy="427.92" rx="57.47" ry="5.71"/>
	<ellipse class="st64" cx="275.02" cy="427.9" rx="54.85" ry="5.5"/>
	<ellipse class="st65" cx="275.02" cy="427.89" rx="52.22" ry="5.3"/>
	<ellipse class="st66" cx="275.02" cy="427.87" rx="49.6" ry="5.1"/>
	<ellipse class="st66" cx="275.02" cy="427.85" rx="46.98" ry="4.89"/>
	<ellipse class="st67" cx="275.02" cy="427.83" rx="44.36" ry="4.69"/>
	<ellipse class="st68" cx="275.02" cy="427.81" rx="41.74" ry="4.48"/>
	<ellipse class="st69" cx="275.02" cy="427.8" rx="39.12" ry="4.28"/>
	<ellipse class="st69" cx="275.02" cy="427.78" rx="36.5" ry="4.07"/>
	<ellipse class="st70" cx="275.02" cy="427.76" rx="33.88" ry="3.87"/>
	<ellipse class="st71" cx="275.02" cy="427.74" rx="31.26" ry="3.66"/>
	<ellipse class="st72" cx="275.02" cy="427.73" rx="28.63" ry="3.46"/>
	<ellipse class="st72" cx="275.02" cy="427.71" rx="26.01" ry="3.26"/>
	<ellipse class="st73" cx="275.02" cy="427.69" rx="23.39" ry="3.05"/>
	<ellipse class="st74" cx="275.02" cy="427.67" rx="20.77" ry="2.85"/>
	<ellipse class="st75" cx="275.02" cy="427.66" rx="18.15" ry="2.64"/>
	<ellipse class="st75" cx="275.02" cy="427.64" rx="15.53" ry="2.44"/>
	<ellipse class="st76" cx="275.02" cy="427.62" rx="12.91" ry="2.23"/>
	<ellipse class="st77" cx="275.02" cy="427.6" rx="10.29" ry="2.03"/>
</g>
<g>
	<path class="st78" d="M377.65,265.37c-4.29,0-8.35-1.8-11.32-4.9c-23.02-24.11-55.45-39.14-91.32-39.14
		c-35.88,0-68.3,15.03-91.31,39.14c-2.96,3.1-7.03,4.9-11.32,4.9h0c-13.69,0-20.69-16.4-11.24-26.31
		c28.67-30.08,69.12-48.85,113.87-48.85c44.75,0,85.2,18.76,113.88,48.85C398.35,248.96,391.35,265.37,377.65,265.37L377.65,265.37z
		"/>
	<g>
		<circle class="st78" cx="179.6" cy="25.68" r="25.68"/>
		<circle class="st78" cx="370.44" cy="25.68" r="25.68"/>
	</g>
</g>
</svg>
