<?xml version="1.0" encoding="utf-8"?>
<!-- Generator: Adobe Illustrator 24.0.1, SVG Export Plug-In . SVG Version: 6.00 Build 0)  -->
<svg version="1.1" id="Layer_1" xmlns="http://www.w3.org/2000/svg" xmlns:xlink="http://www.w3.org/1999/xlink" x="0px" y="0px"
	 viewBox="0 0 92.169 42" style="enable-background:new 0 0 92.169 42;" xml:space="preserve">
<style type="text/css">
	.st0{fill-rule:evenodd;clip-rule:evenodd;fill:#707804;}
	.st1{opacity:0.7018;fill-rule:evenodd;clip-rule:evenodd;fill:#FFFFFF;enable-background:new    ;}
</style>
<title>Rectangle</title>
<desc>Created with Sketch.</desc>
<path id="Path_21_" class="st0" d="M90.9683,13.9053c0.036-0.1952,0.111-0.3661,0.217-0.4891
	c0.1055-0.123,0.2342-0.1888,0.3674-0.1888c0.1326,0,0.2618,0.0658,0.3674,0.1888c0.106,0.123,0.181,0.2939,0.217,0.4891
	c0.0173,0.0929,0.0247,0.1866,0.0286,0.2817c0.0035,0.1058,0.0035,0.2109,0.0035,0.316v12.4632c0,0.1058,0,0.2102-0.0035,0.316
	c-0.0039,0.0958-0.0113,0.1888-0.0286,0.281c-0.036,0.1959-0.1109,0.3668-0.217,0.4898c-0.1055,0.123-0.2347,0.1895-0.3674,0.1895
	c-0.1331,0-0.2618-0.0665-0.3674-0.1895c-0.106-0.123-0.181-0.2939-0.217-0.4898c-0.0173-0.0922-0.0247-0.1852-0.0286-0.281
	c-0.0035-0.1058-0.0035-0.2102-0.0035-0.316V14.5031c0-0.1051,0-0.2102,0.0035-0.316
	C90.9436,14.0919,90.951,13.9983,90.9683,13.9053L90.9683,13.9053z"/>
<path id="Path_22_" class="st0" d="M87.981,15.2595c0.0039-0.0951,0.0113-0.1888,0.0286-0.2817
	c0.036-0.1952,0.1109-0.3661,0.217-0.4891c0.1055-0.123,0.2342-0.1888,0.3674-0.1888c0.1326,0,0.2618,0.0658,0.3674,0.1888
	c0.106,0.123,0.181,0.2939,0.217,0.4891c0.0173,0.0929,0.0247,0.1866,0.0286,0.2817c0.0035,0.1058,0.0035,0.2109,0.0035,0.316
	v0.0021v10.3139v0.0021c0,0.1058,0,0.2102-0.0035,0.316c-0.0039,0.0958-0.0113,0.1888-0.0286,0.281
	c-0.036,0.1959-0.1109,0.3668-0.217,0.4898c-0.1055,0.123-0.2347,0.1895-0.3674,0.1895c-0.1331,0-0.2618-0.0665-0.3674-0.1895
	c-0.106-0.123-0.181-0.2939-0.217-0.4898c-0.0173-0.0922-0.0247-0.1852-0.0286-0.281c-0.0034-0.1058-0.0034-0.2102-0.0034-0.316
	v-0.0021V15.5777v-0.0021C87.9776,15.4705,87.9776,15.3654,87.981,15.2595L87.981,15.2595z"/>
<path id="Path_23_" class="st0" d="M85.269,8.8245c0.0039-0.0951,0.0113-0.1888,0.0286-0.2817
	c0.036-0.1952,0.1109-0.3661,0.217-0.4891c0.1055-0.123,0.2342-0.1888,0.3674-0.1888c0.1326,0,0.2618,0.0658,0.3674,0.1888
	c0.106,0.123,0.181,0.2939,0.217,0.4891c0.0173,0.0929,0.0247,0.1866,0.0286,0.2817c0.0034,0.1058,0.0034,0.2109,0.0034,0.316
	v0.0021v23.1839v0.0021c0,0.1058,0,0.2102-0.0034,0.316c-0.0039,0.0958-0.0113,0.1888-0.0286,0.281
	c-0.036,0.1959-0.1109,0.3668-0.217,0.4898c-0.1055,0.123-0.2347,0.1895-0.3674,0.1895c-0.1331,0-0.2618-0.0665-0.3674-0.1895
	c-0.106-0.123-0.181-0.2939-0.217-0.4898c-0.0173-0.0922-0.0247-0.1852-0.0286-0.281c-0.0035-0.1058-0.0035-0.2102-0.0035-0.316
	v-0.0021V9.1427V9.1406C85.2655,9.0355,85.2655,8.9304,85.269,8.8245L85.269,8.8245z"/>
<path id="Path_24_" class="st0" d="M82.3103,9.5395c0.0039-0.0951,0.0113-0.1888,0.0286-0.2817
	c0.036-0.1952,0.1109-0.3661,0.217-0.4891c0.1055-0.123,0.2342-0.1888,0.3674-0.1888c0.1326,0,0.2618,0.0658,0.3674,0.1888
	c0.106,0.123,0.181,0.2939,0.217,0.4891c0.0173,0.0929,0.0247,0.1866,0.0286,0.2817c0.0035,0.1058,0.0035,0.2109,0.0035,0.316
	v0.0021v21.7539v0.0021c0,0.1058,0,0.2102-0.0035,0.316c-0.0039,0.0958-0.0113,0.1888-0.0286,0.281
	c-0.036,0.1959-0.111,0.3668-0.217,0.4898c-0.1055,0.123-0.2347,0.1895-0.3674,0.1895c-0.1331,0-0.2618-0.0665-0.3674-0.1895
	c-0.106-0.123-0.181-0.2939-0.217-0.4898c-0.0173-0.0922-0.0247-0.1852-0.0286-0.281c-0.0035-0.1058-0.0035-0.2102-0.0035-0.316
	v-0.0021V9.8577V9.8556C82.3069,9.7505,82.3069,9.6454,82.3103,9.5395L82.3103,9.5395z"/>
<path id="Path_25_" class="st0" d="M79.3803,14.2628c0.036-0.1952,0.1109-0.3661,0.217-0.4891
	c0.1055-0.123,0.2342-0.1888,0.3674-0.1888c0.1326,0,0.2618,0.0658,0.3674,0.1888c0.106,0.123,0.181,0.2939,0.217,0.4891
	c0.0173,0.0929,0.0247,0.1866,0.0286,0.2817c0.0034,0.1058,0.0034,0.2109,0.0034,0.316v11.7482c0,0.1058,0,0.2102-0.0034,0.316
	c-0.004,0.0958-0.0113,0.1888-0.0286,0.281c-0.036,0.1959-0.1109,0.3668-0.217,0.4898c-0.1055,0.123-0.2347,0.1895-0.3674,0.1895
	c-0.1331,0-0.2618-0.0665-0.3674-0.1895c-0.106-0.123-0.181-0.2939-0.217-0.4898c-0.0173-0.0922-0.0247-0.1852-0.0286-0.281
	c-0.0034-0.1058-0.0034-0.2102-0.0034-0.316V14.8606c0-0.1051,0-0.2102,0.0034-0.316
	C79.3557,14.4494,79.3631,14.3558,79.3803,14.2628L79.3803,14.2628z"/>
<path id="Path_26_" class="st0" d="M76.3931,10.2545c0.0039-0.0951,0.0113-0.1888,0.0286-0.2817
	c0.036-0.1952,0.1109-0.3661,0.217-0.4891c0.1055-0.123,0.2342-0.1888,0.3674-0.1888c0.1326,0,0.2618,0.0658,0.3674,0.1888
	c0.106,0.123,0.181,0.2939,0.217,0.4891c0.0173,0.0929,0.0247,0.1866,0.0286,0.2817c0.0034,0.1058,0.0034,0.2109,0.0034,0.316
	v0.0021v20.3239v0.0021c0,0.1058,0,0.2102-0.0034,0.316c-0.0039,0.0958-0.0113,0.1888-0.0286,0.281
	c-0.036,0.1959-0.1109,0.3668-0.217,0.4898c-0.1055,0.123-0.2347,0.1895-0.3674,0.1895c-0.1331,0-0.2618-0.0665-0.3674-0.1895
	c-0.106-0.123-0.181-0.2939-0.217-0.4898c-0.0173-0.0922-0.0247-0.1852-0.0286-0.281c-0.0035-0.1058-0.0035-0.2102-0.0035-0.316
	v-0.0021V10.5727v-0.0021C76.3897,10.4655,76.3897,10.3604,76.3931,10.2545L76.3931,10.2545z"/>
<path id="Path_27_" class="st0" d="M73.4631,0.6778c0.036-0.1952,0.1109-0.3661,0.217-0.4891C73.7856,0.0658,73.9143,0,74.0474,0
	c0.1326,0,0.2618,0.0658,0.3674,0.1888c0.106,0.123,0.181,0.2939,0.217,0.4891c0.0173,0.093,0.0247,0.1866,0.0286,0.2817
	c0.0035,0.1058,0.0035,0.2109,0.0035,0.316v38.9182c0,0.1058,0,0.2102-0.0035,0.316c-0.0039,0.0958-0.0113,0.1888-0.0286,0.281
	c-0.036,0.1959-0.111,0.3668-0.217,0.4898c-0.1055,0.123-0.2347,0.1895-0.3674,0.1895c-0.1331,0-0.2618-0.0665-0.3674-0.1895
	c-0.106-0.123-0.181-0.2939-0.217-0.4898c-0.0173-0.0922-0.0247-0.1852-0.0286-0.281c-0.0034-0.1058-0.0034-0.2102-0.0034-0.316
	V1.2756c0-0.1051,0-0.2102,0.0034-0.316C73.4384,0.8644,73.4458,0.7708,73.4631,0.6778L73.4631,0.6778z"/>
<path id="Path_28_" class="st0" d="M70.4759,13.8295c0.0039-0.0951,0.0113-0.1888,0.0286-0.2817
	c0.036-0.1952,0.1109-0.3661,0.217-0.4891c0.1055-0.123,0.2342-0.1888,0.3674-0.1888c0.1326,0,0.2618,0.0658,0.3674,0.1888
	c0.106,0.123,0.181,0.2939,0.217,0.4891c0.0173,0.0929,0.0247,0.1866,0.0286,0.2817c0.0034,0.1058,0.0034,0.2109,0.0034,0.316
	v0.0021v13.1739v0.0021c0,0.1058,0,0.2102-0.0034,0.316c-0.0039,0.0958-0.0113,0.1888-0.0286,0.281
	c-0.036,0.1959-0.1109,0.3668-0.217,0.4898c-0.1055,0.123-0.2347,0.1895-0.3674,0.1895c-0.1331,0-0.2618-0.0665-0.3674-0.1895
	c-0.106-0.123-0.181-0.2939-0.217-0.4898c-0.0173-0.0922-0.0247-0.1852-0.0286-0.281c-0.0034-0.1058-0.0034-0.2102-0.0034-0.316
	v-0.0021V14.1477v-0.0021C70.4724,14.0405,70.4724,13.9354,70.4759,13.8295L70.4759,13.8295z"/>
<path id="Path_29_" class="st0" d="M67.5459,15.6928c0.036-0.1952,0.111-0.3661,0.217-0.4891
	c0.1055-0.123,0.2342-0.1888,0.3674-0.1888c0.1326,0,0.2618,0.0658,0.3674,0.1888c0.106,0.123,0.181,0.2939,0.217,0.4891
	c0.0173,0.0929,0.0247,0.1866,0.0286,0.2817c0.0034,0.1058,0.0034,0.2109,0.0034,0.316v8.8882c0,0.1051,0,0.2102-0.0034,0.316
	c-0.0039,0.0958-0.0113,0.1888-0.0286,0.281c-0.036,0.1959-0.1109,0.3668-0.217,0.4898c-0.1055,0.123-0.2347,0.1895-0.3674,0.1895
	c-0.1331,0-0.2618-0.0665-0.3674-0.1895c-0.106-0.123-0.181-0.2939-0.217-0.4898c-0.0173-0.0922-0.0247-0.1852-0.0286-0.281
	c-0.0035-0.1058-0.0035-0.2109-0.0035-0.316v-8.8882c0-0.1051,0-0.2102,0.0035-0.316
	C67.5212,15.8794,67.5286,15.7858,67.5459,15.6928L67.5459,15.6928z"/>
<path id="Path_30_" class="st0" d="M64.5586,13.8295c0.0039-0.0951,0.0113-0.1888,0.0286-0.2817
	c0.036-0.1952,0.1109-0.3661,0.217-0.4891c0.1055-0.123,0.2342-0.1888,0.3674-0.1888c0.1326,0,0.2618,0.0658,0.3674,0.1888
	c0.106,0.123,0.181,0.2939,0.217,0.4891c0.0173,0.0929,0.0247,0.1866,0.0286,0.2817c0.0035,0.1058,0.0035,0.2109,0.0035,0.316
	v0.0021v13.1739v0.0021c0,0.1058,0,0.2102-0.0035,0.316c-0.0039,0.0958-0.0113,0.1888-0.0286,0.281
	c-0.036,0.1959-0.111,0.3668-0.217,0.4898c-0.1055,0.123-0.2347,0.1895-0.3674,0.1895c-0.1331,0-0.2618-0.0665-0.3674-0.1895
	c-0.106-0.123-0.181-0.2939-0.217-0.4898c-0.0173-0.0922-0.0247-0.1852-0.0286-0.281c-0.0034-0.1058-0.0034-0.2102-0.0034-0.316
	v-0.0021V14.1477v-0.0021C64.5552,14.0405,64.5552,13.9354,64.5586,13.8295L64.5586,13.8295z"/>
<path id="Path_31_" class="st0" d="M61.6286,17.1228c0.036-0.1952,0.111-0.3661,0.217-0.4891
	c0.1055-0.123,0.2342-0.1888,0.3674-0.1888c0.1326,0,0.2618,0.0658,0.3674,0.1888c0.106,0.123,0.181,0.2939,0.217,0.4891
	c0.0173,0.0929,0.0247,0.1866,0.0286,0.2817c0.0035,0.1058,0.0035,0.2109,0.0035,0.316v6.0282c0,0.1051,0,0.2102-0.0035,0.316
	c-0.0039,0.0958-0.0113,0.1888-0.0286,0.2817c-0.036,0.1952-0.1109,0.3661-0.217,0.4891c-0.1055,0.123-0.2347,0.1895-0.3674,0.1895
	c-0.1331,0-0.2618-0.0665-0.3674-0.1895c-0.106-0.123-0.181-0.2939-0.217-0.4891c-0.0173-0.0929-0.0247-0.1859-0.0286-0.2817
	c-0.0035-0.1058-0.0035-0.2109-0.0035-0.316v-6.0282c0-0.1051,0-0.2102,0.0035-0.316
	C61.604,17.3094,61.6114,17.2158,61.6286,17.1228L61.6286,17.1228z"/>
<path id="Path_32_" class="st0" d="M58.6414,3.8195c0.0039-0.0951,0.0113-0.1888,0.0286-0.2817
	c0.036-0.1952,0.1109-0.3661,0.217-0.4891c0.1055-0.123,0.2342-0.1888,0.3674-0.1888c0.1326,0,0.2618,0.0658,0.3674,0.1888
	c0.106,0.123,0.181,0.2939,0.217,0.4891c0.0173,0.0929,0.0247,0.1866,0.0286,0.2817c0.0035,0.1058,0.0035,0.2109,0.0035,0.316
	v0.0021v33.1939v0.0021c0,0.1058,0,0.2102-0.0035,0.316c-0.0039,0.0958-0.0113,0.1888-0.0286,0.281
	c-0.036,0.1959-0.111,0.3668-0.217,0.4898c-0.1055,0.123-0.2347,0.1895-0.3674,0.1895c-0.1331,0-0.2618-0.0665-0.3674-0.1895
	c-0.106-0.123-0.181-0.2939-0.217-0.4898c-0.0173-0.0922-0.0247-0.1852-0.0286-0.281c-0.0035-0.1058-0.0035-0.2102-0.0035-0.316
	v-0.0021V4.1377V4.1356C58.6379,4.0305,58.6379,3.9254,58.6414,3.8195L58.6414,3.8195z"/>
<path id="Path_33_" class="st0" d="M55.7114,12.4753c0.036-0.1952,0.1109-0.3661,0.217-0.4891
	c0.1055-0.123,0.2342-0.1888,0.3674-0.1888c0.1326,0,0.2618,0.0658,0.3674,0.1888c0.106,0.123,0.181,0.2939,0.217,0.4891
	c0.0173,0.0929,0.0247,0.1866,0.0286,0.2817c0.0035,0.1058,0.0035,0.2109,0.0035,0.316v0.0021v15.3189v0.0021
	c0,0.1058,0,0.2102-0.0035,0.316c-0.0039,0.0958-0.0113,0.1888-0.0286,0.281c-0.036,0.1959-0.111,0.3668-0.217,0.4898
	c-0.1055,0.123-0.2347,0.1895-0.3674,0.1895c-0.1331,0-0.2618-0.0665-0.3674-0.1895c-0.106-0.123-0.181-0.2939-0.217-0.4898
	c-0.0173-0.0922-0.0247-0.1852-0.0286-0.281c-0.0035-0.1058-0.0035-0.2102-0.0035-0.316V13.0731c0-0.1051,0-0.2102,0.0035-0.316
	C55.6867,12.6619,55.6941,12.5683,55.7114,12.4753L55.7114,12.4753z"/>
<path id="Path_34_" class="st0" d="M52.7241,18.1195c0.0039-0.0951,0.0113-0.1888,0.0286-0.2817
	c0.036-0.1952,0.111-0.3661,0.217-0.4891c0.1055-0.123,0.2342-0.1888,0.3674-0.1888c0.1326,0,0.2618,0.0658,0.3674,0.1888
	c0.106,0.123,0.181,0.2939,0.217,0.4891c0.0173,0.0929,0.0247,0.1866,0.0286,0.2817c0.0034,0.1058,0.0034,0.2109,0.0034,0.316
	v0.0021v4.5939v0.0021c0,0.1051,0,0.2102-0.0034,0.316c-0.0039,0.0958-0.0113,0.1888-0.0286,0.2817
	c-0.036,0.1952-0.1109,0.3661-0.217,0.4891c-0.1055,0.123-0.2347,0.1895-0.3674,0.1895c-0.1331,0-0.2618-0.0665-0.3674-0.1895
	c-0.106-0.123-0.181-0.2939-0.217-0.4891c-0.0173-0.0929-0.0247-0.1859-0.0286-0.2817c-0.0035-0.1058-0.0035-0.2109-0.0035-0.316
	v-0.0021v-4.5939v-0.0021C52.7207,18.3305,52.7207,18.2254,52.7241,18.1195L52.7241,18.1195z"/>
<path id="Path_35_" class="st0" d="M50.0407,18.5528c0.036-0.1952,0.1109-0.3661,0.217-0.4891
	c0.1055-0.123,0.2342-0.1888,0.3674-0.1888c0.1326,0,0.2618,0.0658,0.3674,0.1888c0.106,0.123,0.181,0.2939,0.217,0.4891
	c0.0173,0.0929,0.0247,0.1866,0.0286,0.2817c0.0035,0.1058,0.0035,0.2109,0.0035,0.316v3.1682c0,0.1051,0,0.2102-0.0035,0.316
	c-0.0039,0.0958-0.0113,0.1888-0.0286,0.2817c-0.036,0.1952-0.111,0.3661-0.217,0.4891c-0.1055,0.123-0.2347,0.1895-0.3674,0.1895
	c-0.1331,0-0.2618-0.0665-0.3674-0.1895c-0.106-0.123-0.181-0.2939-0.217-0.4891c-0.0173-0.093-0.0247-0.1859-0.0286-0.2817
	c-0.0035-0.1058-0.0035-0.2109-0.0035-0.316v-3.1682c0-0.1051,0-0.2102,0.0035-0.316
	C50.016,18.7394,50.0234,18.6458,50.0407,18.5528L50.0407,18.5528z"/>
<path id="Path_36_" class="st0" d="M47.0535,12.3995c0.0039-0.0951,0.0113-0.1888,0.0286-0.2817
	c0.036-0.1952,0.1109-0.3661,0.217-0.4891c0.1055-0.123,0.2342-0.1888,0.3674-0.1888c0.1326,0,0.2618,0.0658,0.3674,0.1888
	c0.106,0.123,0.181,0.2939,0.217,0.4891c0.0173,0.0929,0.0247,0.1866,0.0286,0.2817c0.0035,0.1058,0.0035,0.2109,0.0035,0.316
	v0.0021v16.0339v0.0021c0,0.1058,0,0.2102-0.0035,0.316c-0.0039,0.0958-0.0113,0.1888-0.0286,0.281
	c-0.036,0.1959-0.111,0.3668-0.217,0.4898c-0.1055,0.123-0.2347,0.1895-0.3674,0.1895c-0.1331,0-0.2618-0.0665-0.3674-0.1895
	c-0.106-0.123-0.181-0.2939-0.217-0.4898c-0.0173-0.0922-0.0247-0.1852-0.0286-0.281c-0.0035-0.1058-0.0035-0.2102-0.0035-0.316
	v-0.0021V12.7177v-0.0021C47.05,12.6105,47.05,12.5054,47.0535,12.3995L47.0535,12.3995z"/>
<path id="Path_37_" class="st0" d="M44.1234,13.5478c0.036-0.1952,0.111-0.3661,0.217-0.4891
	c0.1055-0.123,0.2342-0.1888,0.3674-0.1888c0.1326,0,0.2618,0.0658,0.3674,0.1888c0.106,0.123,0.181,0.2939,0.217,0.4891
	c0.0173,0.0929,0.0247,0.1866,0.0286,0.2817c0.0035,0.1058,0.0035,0.2109,0.0035,0.316v13.1782c0,0.1058,0,0.2102-0.0035,0.316
	c-0.0039,0.0958-0.0113,0.1888-0.0286,0.281c-0.036,0.1959-0.1109,0.3668-0.217,0.4898c-0.1055,0.123-0.2347,0.1895-0.3674,0.1895
	c-0.1331,0-0.2618-0.0665-0.3674-0.1895c-0.106-0.123-0.181-0.2939-0.217-0.4898c-0.0173-0.0922-0.0247-0.1852-0.0286-0.281
	c-0.0035-0.1058-0.0035-0.2102-0.0035-0.316V14.1456c0-0.1051,0-0.2102,0.0035-0.316
	C44.0988,13.7344,44.1062,13.6408,44.1234,13.5478L44.1234,13.5478z"/>
<path id="Path_38_" class="st0" d="M41.1362,14.5445c0.0039-0.0951,0.0113-0.1888,0.0286-0.2817
	c0.036-0.1952,0.111-0.3661,0.217-0.4891c0.1055-0.123,0.2342-0.1888,0.3674-0.1888c0.1326,0,0.2618,0.0658,0.3674,0.1888
	c0.106,0.123,0.181,0.2939,0.217,0.4891c0.0173,0.0929,0.0247,0.1866,0.0286,0.2817c0.0035,0.1058,0.0035,0.2109,0.0035,0.316
	v0.0021v11.7439v0.0021c0,0.1058,0,0.2102-0.0035,0.316c-0.0039,0.0958-0.0113,0.1888-0.0286,0.281
	c-0.036,0.1959-0.1109,0.3668-0.217,0.4898c-0.1055,0.123-0.2347,0.1895-0.3674,0.1895c-0.1331,0-0.2618-0.0665-0.3674-0.1895
	c-0.106-0.123-0.181-0.2939-0.217-0.4898c-0.0173-0.0922-0.0247-0.1852-0.0286-0.281c-0.0035-0.1058-0.0035-0.2102-0.0035-0.316
	v-0.0021V14.8627v-0.0021C41.1328,14.7555,41.1328,14.6504,41.1362,14.5445L41.1362,14.5445z"/>
<path id="Path_39_" class="st0" d="M38.2062,16.0503c0.036-0.1952,0.1109-0.3661,0.217-0.4891
	c0.1055-0.123,0.2342-0.1888,0.3674-0.1888c0.1326,0,0.2618,0.0658,0.3674,0.1888c0.106,0.123,0.181,0.2939,0.217,0.4891
	c0.0173,0.0929,0.0247,0.1866,0.0286,0.2817c0.0035,0.1058,0.0035,0.2109,0.0035,0.316v8.1732c0,0.1051,0,0.2102-0.0035,0.316
	c-0.0039,0.0958-0.0113,0.1888-0.0286,0.2817c-0.036,0.1952-0.111,0.3661-0.217,0.4891c-0.1055,0.123-0.2347,0.1895-0.3674,0.1895
	c-0.1331,0-0.2618-0.0665-0.3674-0.1895c-0.106-0.123-0.181-0.2939-0.217-0.4891c-0.0173-0.0929-0.0247-0.1859-0.0286-0.2817
	c-0.0035-0.1058-0.0035-0.2109-0.0035-0.316v-8.1732c0-0.1051,0-0.2102,0.0035-0.316
	C38.1815,16.2369,38.1889,16.1433,38.2062,16.0503L38.2062,16.0503z"/>
<path id="Path_40_" class="st0" d="M35.2476,10.3303c0.036-0.1952,0.1109-0.3661,0.217-0.4891
	c0.1055-0.123,0.2342-0.1888,0.3674-0.1888c0.1326,0,0.2618,0.0658,0.3674,0.1888c0.106,0.123,0.181,0.2939,0.217,0.4891
	c0.0173,0.093,0.0247,0.1866,0.0286,0.2817c0.0035,0.1058,0.0035,0.2109,0.0035,0.316v19.6132c0,0.1058,0,0.2102-0.0035,0.316
	c-0.0039,0.0958-0.0113,0.1888-0.0286,0.281c-0.036,0.1959-0.111,0.3668-0.217,0.4898c-0.1055,0.123-0.2347,0.1895-0.3674,0.1895
	c-0.1331,0-0.2618-0.0665-0.3674-0.1895c-0.106-0.123-0.181-0.2939-0.217-0.4898c-0.0173-0.0922-0.0247-0.1852-0.0286-0.281
	c-0.0035-0.1058-0.0035-0.2102-0.0035-0.316V10.9281c0-0.1051,0-0.2102,0.0035-0.316
	C35.2229,10.5169,35.2303,10.4233,35.2476,10.3303L35.2476,10.3303z"/>
<path id="Path_41_" class="st0" d="M32.2604,17.4045c0.0039-0.0951,0.0113-0.1888,0.0286-0.2817
	c0.036-0.1952,0.111-0.3661,0.217-0.4891c0.1055-0.123,0.2342-0.1888,0.3674-0.1888c0.1326,0,0.2618,0.0658,0.3674,0.1888
	c0.106,0.123,0.181,0.2939,0.217,0.4891c0.0173,0.0929,0.0247,0.1866,0.0286,0.2817c0.0034,0.1058,0.0034,0.2109,0.0034,0.316
	v0.0021v6.0239v0.0021c0,0.1051,0,0.2102-0.0034,0.316c-0.0039,0.0958-0.0113,0.1888-0.0286,0.2817
	c-0.036,0.1952-0.1109,0.3661-0.217,0.4891c-0.1055,0.123-0.2347,0.1895-0.3674,0.1895c-0.1331,0-0.2618-0.0665-0.3674-0.1895
	c-0.106-0.123-0.181-0.2939-0.217-0.4891c-0.0173-0.0929-0.0247-0.1859-0.0286-0.2817c-0.0035-0.1058-0.0035-0.2109-0.0035-0.316
	v-0.0021v-6.0239v-0.0021C32.2569,17.6155,32.2569,17.5104,32.2604,17.4045L32.2604,17.4045z"/>
<path id="Path_42_" class="st0" d="M29.3303,14.6203c0.036-0.1952,0.1109-0.3661,0.217-0.4891
	c0.1055-0.123,0.2342-0.1888,0.3674-0.1888c0.1326,0,0.2618,0.0658,0.3674,0.1888c0.106,0.123,0.181,0.2939,0.217,0.4891
	c0.0173,0.0929,0.0247,0.1866,0.0286,0.2817c0.0035,0.1058,0.0035,0.2109,0.0035,0.316v11.0332c0,0.1058,0,0.2102-0.0035,0.316
	c-0.0039,0.0958-0.0113,0.1888-0.0286,0.281c-0.036,0.1959-0.1109,0.3668-0.217,0.4898c-0.1055,0.123-0.2347,0.1895-0.3674,0.1895
	c-0.1331,0-0.2618-0.0665-0.3674-0.1895c-0.106-0.123-0.181-0.2939-0.217-0.4898c-0.0173-0.0922-0.0247-0.1852-0.0286-0.281
	c-0.0035-0.1058-0.0035-0.2102-0.0035-0.316V15.2181c0-0.1051,0-0.2102,0.0035-0.316
	C29.3057,14.8069,29.3131,14.7133,29.3303,14.6203L29.3303,14.6203z"/>
<path id="Path_43_" class="st0" d="M26.631,11.6845c0.0039-0.0951,0.0113-0.1888,0.0286-0.2817
	c0.036-0.1952,0.1109-0.3661,0.217-0.4891c0.1055-0.123,0.2342-0.1888,0.3674-0.1888c0.1326,0,0.2618,0.0658,0.3674,0.1888
	c0.106,0.123,0.181,0.2939,0.217,0.4891c0.0173,0.0929,0.0247,0.1866,0.0286,0.2817c0.0035,0.1058,0.0035,0.2109,0.0035,0.316
	v0.0021v17.4639v0.0021c0,0.1058,0,0.2102-0.0035,0.316c-0.0039,0.0958-0.0113,0.1888-0.0286,0.281
	c-0.036,0.1959-0.1109,0.3668-0.217,0.4898c-0.1055,0.123-0.2347,0.1895-0.3674,0.1895c-0.1331,0-0.2618-0.0665-0.3674-0.1895
	c-0.106-0.123-0.181-0.2939-0.217-0.4898c-0.0173-0.0922-0.0247-0.1852-0.0286-0.281c-0.0035-0.1058-0.0035-0.2102-0.0035-0.316
	v-0.0021V12.0027v-0.0021C26.6276,11.8955,26.6276,11.7904,26.631,11.6845L26.631,11.6845z"/>
<path id="Path_44_" class="st0" d="M23.701,7.1128c0.036-0.1952,0.1109-0.3661,0.217-0.4891
	c0.1055-0.123,0.2342-0.1888,0.3674-0.1888c0.1326,0,0.2618,0.0658,0.3674,0.1888c0.106,0.123,0.181,0.2939,0.217,0.4891
	c0.0173,0.0929,0.0247,0.1866,0.0286,0.2817c0.0035,0.1058,0.0035,0.2109,0.0035,0.316v0.0021v26.0439v0.0021
	c0,0.1058,0,0.2102-0.0035,0.316c-0.0039,0.0958-0.0113,0.1888-0.0286,0.281c-0.036,0.1959-0.1109,0.3668-0.217,0.4898
	c-0.1055,0.123-0.2347,0.1895-0.3674,0.1895c-0.1331,0-0.2618-0.0665-0.3674-0.1895c-0.106-0.123-0.181-0.2939-0.217-0.4898
	c-0.0173-0.0922-0.0247-0.1852-0.0286-0.281c-0.0035-0.1058-0.0035-0.2102-0.0035-0.316V7.7106c0-0.1051,0-0.2102,0.0035-0.316
	C23.6764,7.2994,23.6838,7.2058,23.701,7.1128L23.701,7.1128z"/>
<path id="Path_45_" class="st0" d="M20.7138,9.5395c0.0039-0.0951,0.0113-0.1888,0.0286-0.2817
	c0.036-0.1952,0.1109-0.3661,0.217-0.4891c0.1055-0.123,0.2342-0.1888,0.3674-0.1888c0.1326,0,0.2618,0.0658,0.3674,0.1888
	c0.106,0.123,0.181,0.2939,0.217,0.4891c0.0173,0.0929,0.0247,0.1866,0.0286,0.2817c0.0035,0.1058,0.0035,0.2109,0.0035,0.316
	v0.0021v21.7539v0.0021c0,0.1058,0,0.2102-0.0035,0.316c-0.0039,0.0958-0.0113,0.1888-0.0286,0.281
	c-0.036,0.1959-0.1109,0.3668-0.217,0.4898c-0.1055,0.123-0.2347,0.1895-0.3674,0.1895c-0.1331,0-0.2618-0.0665-0.3674-0.1895
	c-0.106-0.123-0.181-0.2939-0.217-0.4898c-0.0173-0.0922-0.0247-0.1852-0.0286-0.281c-0.0035-0.1058-0.0035-0.2102-0.0035-0.316
	v-0.0021V9.8577V9.8556C20.7103,9.7505,20.7103,9.6454,20.7138,9.5395L20.7138,9.5395z"/>
<path id="Path_46_" class="st0" d="M17.7552,14.5445c0.0039-0.0951,0.0113-0.1888,0.0286-0.2817
	c0.036-0.1952,0.1109-0.3661,0.217-0.4891c0.1055-0.123,0.2342-0.1888,0.3674-0.1888c0.1326,0,0.2618,0.0658,0.3674,0.1888
	c0.106,0.123,0.181,0.2939,0.217,0.4891c0.0173,0.0929,0.0247,0.1866,0.0286,0.2817c0.0035,0.1058,0.0035,0.2109,0.0035,0.316
	v0.0021v11.7439v0.0021c0,0.1058,0,0.2102-0.0035,0.316c-0.0039,0.0958-0.0113,0.1888-0.0286,0.281
	c-0.036,0.1959-0.1109,0.3668-0.217,0.4898c-0.1055,0.123-0.2347,0.1895-0.3674,0.1895c-0.1331,0-0.2618-0.0665-0.3674-0.1895
	c-0.106-0.123-0.181-0.2939-0.217-0.4898c-0.0173-0.0922-0.0247-0.1852-0.0286-0.281c-0.0035-0.1058-0.0035-0.2102-0.0035-0.316
	v-0.0021V14.8627v-0.0021C17.7517,14.7555,17.7517,14.6504,17.7552,14.5445L17.7552,14.5445z"/>
<path id="Path_47_" class="st0" d="M14.8252,9.2578c0.036-0.1952,0.1109-0.3661,0.217-0.4891
	c0.1055-0.123,0.2342-0.1888,0.3674-0.1888c0.1326,0,0.2618,0.0658,0.3674,0.1888c0.106,0.123,0.181,0.2939,0.217,0.4891
	c0.0173,0.0929,0.0247,0.1866,0.0286,0.2817c0.0035,0.1058,0.0035,0.2109,0.0035,0.316v0.0021v21.7539v0.0021
	c0,0.1058,0,0.2102-0.0035,0.316c-0.0039,0.0958-0.0113,0.1888-0.0286,0.281c-0.036,0.1959-0.1109,0.3668-0.217,0.4898
	c-0.1055,0.123-0.2347,0.1895-0.3674,0.1895c-0.1331,0-0.2618-0.0665-0.3674-0.1895c-0.106-0.123-0.181-0.2939-0.217-0.4898
	c-0.0173-0.0922-0.0247-0.1852-0.0286-0.281c-0.0035-0.1058-0.0035-0.2102-0.0035-0.316V9.8556c0-0.1051,0-0.2102,0.0035-0.316
	C14.8005,9.4444,14.8079,9.3508,14.8252,9.2578L14.8252,9.2578z"/>
<path id="Path_48_" class="st0" d="M11.8379,10.9695c0.0039-0.0951,0.0113-0.1888,0.0286-0.2817
	c0.036-0.1952,0.1109-0.3661,0.217-0.4891c0.1055-0.123,0.2342-0.1888,0.3674-0.1888c0.1326,0,0.2618,0.0658,0.3674,0.1888
	c0.106,0.123,0.181,0.2939,0.217,0.4891c0.0173,0.093,0.0247,0.1866,0.0286,0.2817c0.0035,0.1058,0.0035,0.2109,0.0035,0.316v0.0021
	v18.8939v0.0021c0,0.1058,0,0.2102-0.0035,0.316c-0.0039,0.0958-0.0113,0.1888-0.0286,0.281
	c-0.036,0.1959-0.1109,0.3668-0.217,0.4898c-0.1055,0.123-0.2347,0.1895-0.3674,0.1895c-0.1331,0-0.2618-0.0665-0.3674-0.1895
	c-0.106-0.123-0.181-0.2939-0.217-0.4898c-0.0173-0.0922-0.0247-0.1852-0.0286-0.281c-0.0035-0.1058-0.0035-0.2102-0.0035-0.316
	v-0.0021V11.2877v-0.0021C11.8345,11.1805,11.8345,11.0754,11.8379,10.9695L11.8379,10.9695z"/>
<path id="Path_49_" class="st0" d="M8.9079,17.1228c0.036-0.1952,0.1109-0.3661,0.217-0.4891
	c0.1055-0.123,0.2342-0.1888,0.3674-0.1888c0.1326,0,0.2618,0.0658,0.3674,0.1888c0.106,0.123,0.181,0.2939,0.217,0.4891
	c0.0173,0.0929,0.0247,0.1866,0.0286,0.2817c0.0035,0.1058,0.0035,0.2109,0.0035,0.316v6.0282c0,0.1051,0,0.2102-0.0035,0.316
	c-0.0039,0.0958-0.0113,0.1888-0.0286,0.2817c-0.036,0.1952-0.1109,0.3661-0.217,0.4891c-0.1055,0.123-0.2347,0.1895-0.3674,0.1895
	c-0.1331,0-0.2618-0.0665-0.3674-0.1895c-0.106-0.123-0.181-0.2939-0.217-0.4891c-0.0173-0.0929-0.0247-0.1859-0.0286-0.2817
	c-0.0035-0.1058-0.0035-0.2109-0.0035-0.316v-6.0282c0-0.1051,0-0.2102,0.0035-0.316C8.8833,17.3094,8.8907,17.2158,8.9079,17.1228
	L8.9079,17.1228z"/>
<path id="Path_50_" class="st0" d="M5.9207,15.9745c0.0039-0.0951,0.0113-0.1888,0.0286-0.2817
	c0.036-0.1952,0.1109-0.3661,0.217-0.4891c0.1055-0.123,0.2342-0.1888,0.3674-0.1888c0.1326,0,0.2618,0.0658,0.3674,0.1888
	c0.106,0.123,0.181,0.2939,0.217,0.4891c0.0173,0.0929,0.0247,0.1866,0.0286,0.2817C7.15,16.0804,7.15,16.1855,7.15,16.2906v0.0021
	v8.8839v0.0021c0,0.1051,0,0.2102-0.0035,0.316c-0.0039,0.0958-0.0113,0.1888-0.0286,0.281
	c-0.036,0.1959-0.1109,0.3668-0.217,0.4898c-0.1055,0.123-0.2347,0.1895-0.3674,0.1895c-0.1331,0-0.2618-0.0665-0.3674-0.1895
	c-0.106-0.123-0.181-0.2939-0.217-0.4898c-0.0173-0.0922-0.0247-0.1852-0.0286-0.281c-0.0035-0.1058-0.0035-0.2109-0.0035-0.316
	v-0.0021v-8.8839v-0.0021C5.9172,16.1855,5.9172,16.0804,5.9207,15.9745L5.9207,15.9745z"/>
<path id="Path_51_" class="st0" d="M2.9907,17.8378c0.036-0.1952,0.1109-0.3661,0.217-0.4891
	C3.3132,17.2258,3.4419,17.16,3.575,17.16c0.1326,0,0.2618,0.0658,0.3674,0.1888c0.106,0.123,0.181,0.2939,0.217,0.4891
	c0.0173,0.0929,0.0247,0.1866,0.0286,0.2817c0.0035,0.1058,0.0035,0.2109,0.0035,0.316v4.5982c0,0.1051,0,0.2102-0.0035,0.316
	c-0.0039,0.0958-0.0113,0.1888-0.0286,0.2817c-0.036,0.1952-0.1109,0.3661-0.217,0.4891C3.8368,24.2435,3.7076,24.31,3.575,24.31
	c-0.1331,0-0.2618-0.0665-0.3674-0.1895c-0.106-0.123-0.181-0.2939-0.217-0.4891c-0.0173-0.0929-0.0247-0.1859-0.0286-0.2817
	c-0.0035-0.1058-0.0035-0.2109-0.0035-0.316v-4.5982c0-0.1051,0-0.2102,0.0035-0.316C2.966,18.0244,2.9734,17.9308,2.9907,17.8378
	L2.9907,17.8378z"/>
<path id="Path_52_" class="st0" d="M0.0035,19.5495c0.0039-0.0951,0.0113-0.1888,0.0286-0.2817
	c0.036-0.1952,0.1109-0.3661,0.217-0.4891c0.1055-0.123,0.2342-0.1888,0.3674-0.1888c0.1326,0,0.2618,0.0658,0.3674,0.1888
	c0.106,0.123,0.181,0.2939,0.217,0.4891c0.0173,0.0929,0.0247,0.1866,0.0286,0.2817c0.0035,0.1058,0.0035,0.2109,0.0035,0.316
	v0.0021v1.7339v0.0021c0,0.1051,0,0.2102-0.0035,0.316c-0.0039,0.0958-0.0113,0.1888-0.0286,0.2817
	c-0.036,0.1952-0.1109,0.3661-0.217,0.4891C0.8782,22.8135,0.749,22.88,0.6164,22.88c-0.1331,0-0.2618-0.0665-0.3674-0.1895
	c-0.106-0.123-0.181-0.2939-0.217-0.4891c-0.0173-0.093-0.0247-0.1859-0.0286-0.2817C0,21.8139,0,21.7088,0,21.6037v-0.0021v-1.7339
	v-0.0021C0,19.7605,0,19.6554,0.0035,19.5495L0.0035,19.5495z"/>
<rect y="21" class="st1" width="92.169" height="21"/>
</svg>
